<?xml version="1.0" standalone="no"?>
<!DOCTYPE svg PUBLIC "-//W3C//DTD SVG 20010904//EN"
 "http://www.w3.org/TR/2001/REC-SVG-20010904/DTD/svg10.dtd">
<svg version="1.0" xmlns="http://www.w3.org/2000/svg"
 width="2000.000000pt" height="2000.000000pt" viewBox="0 0 2000.000000 2000.000000"
 preserveAspectRatio="xMidYMid meet">
<metadata>
Created by potrace 1.14, written by Peter Selinger 2001-2017
</metadata>
<g transform="translate(0.000000,2000.000000) scale(0.100000,-0.100000)"
fill="#000000" stroke="none">
<path d="M6941 14046 c-4 -6 -92 -234 -194 -506 -102 -272 -229 -610 -282
-750 -54 -140 -110 -289 -125 -330 -60 -164 -921 -2446 -929 -2465 -9 -19
-342 -906 -391 -1040 -13 -33 -26 -64 -30 -69 -5 -4 -149 -9 -322 -10 l-313
-1 -3 -52 -4 -52 781 0 781 0 0 53 0 53 -382 1 c-211 0 -391 1 -400 1 -16 1
-14 9 12 79 16 42 68 181 116 307 48 127 93 246 100 265 49 135 376 999 383
1015 5 11 35 90 67 175 32 85 61 157 65 160 4 3 382 5 840 5 l833 0 131 -350
c73 -193 212 -561 310 -820 303 -801 313 -830 309 -834 -2 -2 -181 -4 -399 -3
l-395 0 0 -54 0 -54 1115 1 1115 0 0 53 0 52 -321 1 c-176 1 -322 3 -323 5 -2
1 -37 93 -79 203 -42 110 -149 391 -238 625 -89 234 -171 452 -184 485 -31 83
-167 441 -330 870 -75 198 -168 443 -207 545 -38 102 -83 219 -99 260 -99 259
-140 367 -144 380 -4 14 -340 896 -476 1250 -33 85 -61 162 -64 170 -4 17 -91
245 -105 275 -4 11 -16 40 -25 65 l-16 45 -85 1 c-48 0 -88 -4 -93 -10z m-155
-1172 c41 -110 91 -242 110 -294 20 -52 39 -104 44 -115 5 -11 16 -38 23 -60
22 -61 167 -447 177 -470 5 -11 87 -225 181 -475 94 -250 173 -458 176 -462 2
-5 -353 -8 -790 -8 l-795 0 35 93 c19 50 45 119 58 152 13 33 58 152 100 265
43 113 88 232 101 265 25 65 470 1242 486 1288 6 15 12 26 15 24 2 -2 38 -94
79 -203z"/>
<path d="M2367 13944 c-10 -10 -416 -17 -1064 -18 l-753 -1 0 -51 0 -51 395
-1 c218 0 398 -2 401 -5 7 -7 7 -4927 0 -4934 -3 -3 -183 -6 -401 -6 l-395 0
0 -53 0 -53 1165 0 1165 -1 0 54 0 54 -382 0 c-211 0 -392 1 -403 1 -20 1 -20
8 -19 1186 1 652 3 1187 5 1189 2 2 31 0 64 -5 33 -4 83 -11 110 -14 28 -3 61
-8 75 -10 133 -23 543 -24 655 -1 11 2 49 7 85 11 36 4 67 8 70 10 3 2 26 6
50 10 25 3 59 10 75 15 17 5 44 11 60 14 105 16 333 95 492 171 391 186 652
452 758 770 98 292 69 618 -78 895 -207 390 -666 677 -1257 785 -43 8 -60 11
-130 19 -30 4 -68 9 -85 12 -31 5 -653 12 -658 8z m383 -108 c52 -4 102 -9
110 -11 8 -2 42 -7 75 -10 61 -7 185 -34 253 -56 155 -49 301 -152 394 -276
78 -106 148 -279 173 -425 3 -18 8 -40 10 -48 4 -17 11 -74 21 -175 14 -140 8
-480 -10 -570 -2 -11 -7 -40 -11 -65 -13 -86 -66 -253 -106 -336 -143 -295
-408 -482 -764 -538 -96 -15 -374 -19 -485 -6 -36 5 -94 11 -129 14 -36 4 -67
8 -70 10 -3 2 -31 7 -61 10 -30 4 -59 11 -64 16 -9 9 -15 2449 -6 2451 3 0 14
2 25 4 11 2 63 7 115 11 52 4 96 7 97 8 5 4 355 -2 433 -8z"/>
<path d="M9657 13915 c-2 -5 -3 -28 -3 -50 l1 -40 385 -2 c212 -1 392 -2 401
-2 14 -1 16 -157 16 -1758 0 -1561 3 -1902 18 -1986 3 -12 7 -42 9 -67 3 -25
8 -56 11 -70 3 -14 8 -41 11 -60 5 -34 16 -78 47 -185 96 -338 324 -624 635
-796 156 -87 412 -174 564 -193 23 -3 53 -8 65 -10 12 -3 53 -8 90 -11 37 -4
82 -9 98 -11 35 -5 430 -5 490 0 99 8 184 17 230 26 28 5 63 12 79 14 52 9
241 58 251 66 6 4 28 13 50 20 117 38 361 191 465 293 208 202 383 512 424
747 2 14 9 52 15 85 6 33 16 96 20 140 5 44 10 905 10 1914 1 1009 3 1837 6
1839 2 3 182 5 400 5 l395 0 1 23 c1 13 2 31 2 39 0 8 -1 21 -2 28 -1 9 -179
12 -856 12 l-855 0 0 -51 0 -51 398 0 397 0 0 -1824 c0 -1576 -4 -1971 -21
-2000 -2 -3 -6 -30 -9 -60 -15 -139 -91 -358 -166 -477 -152 -244 -340 -428
-534 -525 -122 -61 -297 -118 -410 -133 -27 -3 -52 -8 -55 -9 -43 -26 -618
-26 -659 0 -4 2 -26 6 -49 10 -60 9 -183 50 -255 86 -317 157 -503 493 -562
1014 -4 33 -9 78 -12 100 -2 22 -6 889 -7 1928 l-4 1887 37 1 c20 0 194 1 386
0 193 0 357 2 366 5 11 3 15 17 14 52 l-1 47 -1162 0 c-772 0 -1163 -3 -1165
-10z"/>
<path d="M15210 13874 l0 -52 395 1 c218 0 398 -3 401 -5 7 -8 7 -4929 -1
-4936 -3 -3 -183 -5 -400 -5 l-395 1 0 -54 0 -54 2210 0 2210 1 0 795 0 795
-42 -3 -42 -3 -17 -65 c-38 -143 -50 -183 -89 -291 -59 -163 -166 -376 -252
-504 -82 -123 -103 -149 -203 -252 -169 -176 -410 -299 -661 -339 -20 -3 -46
-7 -57 -10 -83 -16 -1509 -26 -1524 -10 -8 7 -7 4925 0 4933 4 3 184 6 402 6
l395 0 0 51 0 51 -1165 0 -1165 0 0 -51z"/>
<path d="M5021 6918 c-150 -23 -240 -120 -249 -268 -3 -65 0 -81 20 -120 40
-74 100 -108 304 -170 127 -38 185 -76 215 -136 48 -101 -3 -234 -109 -280
-45 -20 -177 -22 -240 -5 -81 22 -154 112 -188 228 -8 29 -19 53 -24 53 -4 0
-8 -65 -8 -145 0 -83 4 -145 9 -145 5 0 20 6 32 14 19 12 32 11 102 -10 110
-34 265 -36 345 -5 122 47 201 155 205 280 5 151 -53 213 -260 276 -267 82
-320 116 -329 216 -11 116 89 201 231 195 119 -5 215 -93 238 -220 13 -69 27
-22 28 97 1 116 -6 148 -24 114 -12 -21 -45 -22 -95 -1 -66 28 -144 41 -203
32z"/>
<path d="M6953 6918 c-112 -17 -208 -71 -291 -164 -95 -106 -133 -207 -133
-350 -1 -238 174 -458 392 -492 162 -25 301 25 416 152 216 236 172 605 -92
781 -85 56 -204 86 -292 73z m172 -42 c131 -55 194 -219 189 -491 -4 -234 -47
-354 -152 -423 -58 -38 -215 -48 -287 -18 -84 35 -157 143 -170 251 -4 28 -9
58 -12 68 -7 24 -5 239 2 302 20 170 95 286 205 319 58 18 173 14 225 -8z"/>
<path d="M11113 6917 c-4 -7 -89 -228 -188 -492 l-181 -480 -57 1 c-36 0 -57
-3 -57 -10 0 -8 45 -11 145 -11 92 0 144 4 142 10 -2 6 -35 10 -73 10 -55 1
-68 4 -66 15 5 26 125 345 133 354 7 8 306 13 313 5 4 -4 136 -348 139 -363 1
-5 -28 -9 -66 -10 -37 -1 -67 -6 -67 -11 0 -6 76 -10 205 -10 142 0 205 3 205
11 0 6 -21 10 -54 9 -30 -1 -58 1 -63 4 -5 3 -64 152 -132 331 -226 596 -243
639 -257 644 -7 3 -17 0 -21 -7z m-9 -277 c15 -41 31 -84 36 -95 19 -45 70
-185 70 -192 0 -5 -65 -8 -144 -9 l-143 0 8 26 c16 49 109 295 119 312 6 10
10 25 10 35 0 28 15 3 44 -77z"/>
<path d="M13605 6918 c-144 -25 -304 -155 -368 -298 -44 -99 -56 -221 -32
-325 93 -399 561 -524 812 -216 104 127 143 271 118 426 -34 206 -222 392
-415 411 -25 3 -49 6 -55 8 -5 1 -32 -2 -60 -6z m194 -48 c72 -36 117 -89 145
-173 27 -81 36 -151 35 -292 0 -152 -8 -216 -39 -297 -42 -114 -132 -178 -253
-180 -142 -4 -224 38 -276 140 -39 77 -50 134 -55 307 -10 285 54 448 198 505
68 27 182 23 245 -10z"/>
<path d="M15648 6925 c-1 -1 -24 -5 -50 -8 -165 -20 -273 -163 -247 -327 10
-61 44 -110 101 -146 36 -23 264 -104 293 -104 22 0 103 -58 130 -94 49 -64
38 -185 -23 -249 -51 -54 -97 -71 -198 -70 -98 0 -153 18 -206 66 -36 33 -84
121 -99 180 -6 26 -15 47 -20 47 -10 0 -13 -283 -3 -293 4 -3 17 2 30 12 26
20 25 20 157 -19 55 -16 183 -19 242 -5 160 37 259 155 258 310 0 77 -14 115
-62 164 -40 41 -68 53 -258 116 -177 57 -228 86 -259 147 -23 44 -12 123 24
167 61 76 205 101 299 53 54 -28 109 -100 129 -169 8 -29 20 -53 25 -53 5 0 9
55 9 125 0 69 -4 125 -9 125 -5 0 -14 -7 -21 -15 -17 -20 -39 -19 -102 6 -29
12 -66 23 -83 26 -16 2 -35 6 -42 8 -6 2 -13 2 -15 0z"/>
<path d="M3216 6903 c-2 -2 -92 -5 -200 -5 -108 0 -199 -4 -201 -8 -8 -12 15
-17 83 -15 34 0 63 -2 63 -5 1 -3 2 -209 3 -458 1 -295 -2 -456 -9 -460 -5 -4
-39 -7 -74 -7 -36 0 -66 -5 -68 -10 -2 -7 93 -10 269 -10 258 1 276 2 329 23
122 49 182 134 181 259 0 98 -88 197 -198 223 -59 14 -75 25 -43 27 11 1 40
11 64 23 194 94 171 331 -39 400 -40 13 -153 29 -160 23z m91 -46 c62 -33 91
-103 87 -214 -4 -133 -58 -184 -196 -187 -44 0 -83 4 -87 9 -6 8 -8 402 -2
412 5 11 172 -7 198 -20z m13 -435 c51 -20 88 -69 104 -137 12 -46 8 -173 -6
-213 -32 -96 -86 -128 -224 -131 -71 -2 -82 0 -86 16 -3 15 -3 437 1 469 1 13
175 10 211 -4z"/>
<path d="M14667 6904 c-2 -2 -91 -6 -198 -7 -125 -1 -192 -6 -189 -12 3 -5 37
-10 76 -10 l72 0 -1 -462 0 -463 -66 0 c-61 0 -105 -12 -85 -22 19 -9 434 -3
434 7 0 6 -28 10 -64 10 -36 0 -68 4 -72 8 -8 7 -7 464 1 477 7 11 192 2 217
-11 73 -38 92 -78 103 -227 14 -193 33 -235 121 -266 72 -25 220 1 199 35 -4
5 -15 3 -28 -6 -12 -8 -32 -15 -45 -15 -60 0 -91 50 -97 159 -7 106 -15 174
-26 208 -14 45 -82 100 -148 120 -62 19 -86 33 -55 33 11 0 43 11 71 25 138
69 163 239 51 341 -52 47 -96 64 -177 70 -36 3 -71 7 -78 9 -6 2 -13 2 -16 -1z
m93 -44 c70 -36 94 -85 94 -191 -1 -120 -37 -190 -107 -205 -34 -7 -166 -9
-173 -2 -5 6 -7 86 -5 321 l1 99 83 -4 c45 -3 94 -11 107 -18z"/>
<path d="M3723 6886 c2 -7 32 -11 75 -11 l72 1 0 -38 c1 -21 1 -202 1 -403 0
-201 0 -393 -1 -428 l0 -63 -67 1 c-38 0 -70 -4 -73 -10 -3 -7 137 -10 410
-10 l415 0 1 148 c1 139 -8 193 -22 130 -25 -116 -78 -194 -159 -235 -34 -18
-60 -21 -192 -22 -84 -1 -157 0 -162 3 -5 3 -8 114 -7 246 l1 240 75 -1 c115
-2 160 -34 189 -134 7 -25 15 -52 18 -60 3 -10 6 -11 11 -3 6 9 8 374 3 418
-2 18 -18 -10 -30 -55 -18 -65 -49 -110 -85 -125 -27 -11 -107 -19 -167 -16
-15 1 -17 22 -15 209 l1 207 140 -1 c84 0 155 -6 178 -13 52 -17 94 -63 129
-138 15 -35 32 -63 36 -63 6 0 9 197 3 232 -1 3 -177 6 -391 6 -279 -1 -390
-4 -387 -12z"/>
<path d="M5595 6890 c-8 -12 14 -16 83 -16 35 1 62 -3 63 -9 4 -60 0 -905 -4
-912 -4 -6 -33 -9 -66 -8 -33 1 -66 -2 -73 -6 -17 -11 -23 -11 220 -13 150 -1
212 2 212 10 0 7 -23 10 -65 9 -36 -1 -69 1 -73 4 -5 3 -9 103 -9 221 l0 216
106 0 c118 1 204 24 271 72 164 118 124 333 -79 414 -52 21 -72 23 -318 25
-144 1 -265 -2 -268 -7z m513 -34 c65 -34 94 -100 94 -218 0 -96 -33 -166 -97
-204 -41 -24 -57 -27 -126 -27 -43 1 -82 4 -87 7 -7 4 -11 447 -4 465 5 11
193 -9 220 -23z"/>
<path d="M7610 6886 c0 -9 23 -12 75 -11 l75 1 0 -466 0 -466 -75 1 c-47 1
-74 -3 -72 -9 2 -7 80 -11 215 -11 143 -1 211 3 209 10 -2 5 -33 10 -70 10
l-67 -1 0 238 c0 131 3 238 8 237 7 0 395 -454 400 -468 1 -4 -19 -7 -45 -6
-53 2 -81 -4 -65 -14 9 -5 360 -7 396 -2 25 3 -11 16 -49 17 -37 2 -49 8 -77
39 -322 365 -455 522 -449 532 6 11 234 255 302 323 33 33 40 36 92 35 38 -1
57 3 57 11 0 16 -282 14 -287 -2 -3 -8 17 -11 62 -9 36 1 65 -1 65 -4 0 -6
-60 -72 -193 -211 -40 -42 -103 -108 -140 -148 -40 -41 -70 -66 -73 -59 -2 7
-3 105 -2 217 l3 205 64 0 c39 0 66 4 68 11 3 9 -54 12 -212 12 -159 0 -215
-4 -215 -12z"/>
<path d="M8620 6886 c0 -8 25 -12 75 -11 l75 1 0 -171 c1 -614 0 -748 -5 -754
-4 -3 -34 -6 -68 -6 -35 0 -62 -4 -62 -10 0 -9 783 -17 810 -8 12 4 14 287 3
299 -4 3 -12 -14 -18 -37 -26 -107 -79 -180 -156 -219 -45 -22 -61 -24 -204
-24 l-155 -1 -2 241 c-2 276 -11 253 95 247 104 -5 140 -35 172 -143 9 -30 20
-55 26 -55 14 0 12 417 -2 422 -6 2 -14 -13 -18 -34 -18 -108 -81 -165 -179
-165 -108 0 -96 -27 -94 210 l2 207 135 0 c88 0 150 -4 177 -13 54 -17 115
-84 139 -152 18 -51 33 -65 35 -32 1 22 1 193 0 208 -1 17 -781 16 -781 0z"/>
<path d="M9849 6876 c-8 -207 2 -277 29 -188 19 62 67 128 115 156 34 20 61
27 116 30 39 2 74 -1 77 -6 4 -6 8 -712 4 -901 0 -22 -3 -23 -70 -23 -40 1
-70 -3 -70 -9 0 -6 78 -10 215 -10 135 0 214 4 213 10 -2 5 -34 10 -73 11
l-70 1 0 464 0 464 69 -2 c38 -1 84 -7 102 -13 49 -16 100 -76 132 -152 16
-38 32 -65 35 -61 4 3 7 61 7 128 l0 122 -415 0 -415 0 -1 -21z"/>
<path d="M11680 6886 c0 -8 25 -12 73 -12 l72 1 3 -463 c2 -366 0 -462 -10
-463 -7 -1 -38 -2 -68 -3 -30 0 -56 -5 -58 -11 -1 -6 77 -10 213 -10 144 -1
214 3 212 10 -2 5 -34 10 -73 10 l-69 0 0 465 0 465 70 1 c86 2 87 2 81 13 -9
14 -446 11 -446 -3z"/>
<path d="M12210 6885 c0 -8 20 -11 63 -10 34 1 67 0 73 -2 8 -3 11 -138 10
-466 l-1 -462 -72 1 c-44 0 -73 -4 -73 -11 0 -7 131 -10 413 -9 226 1 414 2
417 3 3 0 5 66 5 146 0 158 -10 182 -38 92 -33 -103 -102 -184 -178 -208 -43
-14 -318 -18 -326 -6 -4 7 -7 675 -4 883 l1 41 75 -2 c54 -1 75 2 75 10 0 10
-53 13 -220 12 -162 0 -220 -3 -220 -12z"/>
</g>
</svg>
